<svg xmlns="http://www.w3.org/2000/svg" width="207.242" height="168.096" viewBox="0 0 207.242 168.096"><g transform="translate(0.001)"><path d="M331.445,667.286A212.378,212.378,0,0,1,302.6,665.4c-.312-.04-.629-.084-.943-.131-2.347-.334-4.694-.715-6.977-1.134a150.7,150.7,0,0,1-28.789-8.155c-29.39-11.756-47.868-9.254-58.194-5.085-11.175,4.512-15.471,11.893-15.513,11.968l-.368-.209c.043-.075,4.394-7.567,15.691-12.138a54.391,54.391,0,0,1,22.841-3.483c10.651.461,22.662,3.339,35.7,8.554a150.3,150.3,0,0,0,28.708,8.131c2.277.417,4.619.8,6.962,1.131.313.047.626.091.938.131,25.915,3.565,50.914,1.415,67.324-1.016a215.9,215.9,0,0,0,22.316-4.37l.111.408a216.209,216.209,0,0,1-22.365,4.38A266.489,266.489,0,0,1,331.445,667.286Z" transform="translate(-191.82 -512.914)" fill="#3f3d56"/><path d="M331.473,189.432c-7.451,0-14.7-.349-21.7-1.046a161.324,161.324,0,0,1-43.878-10.271c-29.389-11.756-47.868-9.254-58.194-5.085-11.175,4.512-15.471,11.893-15.513,11.967l-.368-.209c.043-.075,4.394-7.567,15.691-12.138a54.381,54.381,0,0,1,22.841-3.483c10.651.461,22.662,3.339,35.7,8.554,29.436,11.774,62.191,12.237,84.485,10.553a249.767,249.767,0,0,0,41.763-6.545l.111.408a250.15,250.15,0,0,1-41.832,6.558C344.1,189.188,337.715,189.432,331.473,189.432Z" transform="translate(-191.819 -156.363)" fill="#3f3d56"/><path d="M657.388,120.963s-8.309-2.968-13.651,8.9a234.1,234.1,0,0,1-13.651,24.927l4.748,1.187s1.187-8.309,4.155-9.5L637.8,157.167s35.611,12.464,51.635-1.187l-.594-4.155s2.374.594,2.374,4.155L693,154.2s-1.781-3.561-7.122-8.309c-3.506-3.116-4.711-9.045-5.125-12.752a15.431,15.431,0,0,0-3.553-8.4C673.649,120.62,667.181,116.248,657.388,120.963Z" transform="translate(-518.828 -118.919)" fill="#2f2e41"/><path d="M873.387,391.56s15.636,13.337,17.936,21.155-8.738,8.738-8.738,8.738l-23.914,2.3s-.46,11.037-4.6,12.417-.84-18.252-.84-18.252l23.375-6.582L866.029,400.3Z" transform="translate(-684.396 -322.347)" fill="#fbbebe"/><path d="M599.793,445.907l-1.84,24.374-10.117,41.39s-9.2,18.855-1.38,19.315,7.358-17.935,7.358-17.935l14.716-39.09,1.38-26.673Z" transform="translate(-483.924 -362.898)" fill="#fbbebe"/><circle cx="15.176" cy="15.176" r="15.176" transform="translate(126.446 9.888)" fill="#fbbebe"/><path d="M708.522,246.635s5.519,19.775-3.219,24.834,22.074,8.738,30.352-6.438c0,0-14.716-5.059-10.577-18.4Z" transform="translate(-573.798 -214.213)" fill="#fbbebe"/><path d="M653.824,350.814l-2.759-.92s-5.519,2.3-5.519,6.438-.92,20.695-.92,20.695l12.417,1.38Z" transform="translate(-529.678 -291.259)" fill="#e6e6e6"/><path d="M695.7,589.756c-16.977,2.515-41.721,4.546-67.382,1.017,0-.254,0-.5,0-.742q0-2.153.165-4.256C629.8,568.5,638.7,554.1,642.139,549.115c.173-.254.334-.482.478-.685.556-.78.879-1.192.879-1.192s26.673-.435,40.47,5.083a5.933,5.933,0,0,1,1.8,1.175C690.906,558.242,693.928,573.654,695.7,589.756Z" transform="translate(-517.51 -438.499)" fill="#2f2e41"/><path d="M846.658,325.95s5.979-3.219,11.957,3.679l11.957,13.8-9.2,10.117L843.9,342.966Z" transform="translate(-678.362 -272.833)" fill="#e6e6e6"/><path d="M683.488,164.9a41.559,41.559,0,0,0,12.6-13.694s9.859,10.955,15.885,11.5.548-13.146.548-13.146l-10.955-2.739-10.407,1.1L682.94,153.4Z" transform="translate(-558.265 -139.741)" fill="#2f2e41"/><path d="M708.159,315.474s-6.436,10.176-25.752,5.318l-10.961,3.019-1.457.4s1.38,27.593,5.059,32.652,2.759,7.818,1.84,8.278-3.219-.46-1.84,1.84,3.219.92,1.38,2.3-2.759,6.438-2.759,6.438l43.229,5.519s-1.38-17.935,2.3-27.133a118.489,118.489,0,0,0,4.6-12.877l-2.759-22.994Z" transform="translate(-548.601 -265.577)" fill="#e6e6e6"/><rect width="59.175" height="73.969" transform="translate(10.539 40.894)" fill="#e6e6e6"/><rect width="12.68" height="8.454" transform="translate(14.66 47.129)" fill="#fff"/><rect width="49.031" height="2.959" transform="translate(14.766 63.614)" fill="#fff"/><rect width="49.031" height="2.959" transform="translate(14.766 71.433)" fill="#fff"/><rect width="49.031" height="2.959" transform="translate(14.766 79.253)" fill="#fff"/><rect width="49.031" height="2.959" transform="translate(14.766 87.073)" fill="#fff"/><rect width="49.031" height="2.959" transform="translate(14.766 94.892)" fill="#fff"/><path d="M444.084,536.867a11.591,11.591,0,1,1-1.8-6.209A11.591,11.591,0,0,1,444.084,536.867Z" transform="translate(-362.746 -422.109)" fill="#6c63ff"/><path d="M457.631,541.426l-11.442,11.44c-.719-1.113-4.726-6.287-4.726-6.287a16.212,16.212,0,0,1,1.64-1.448l3.322,4.43,9.865-9.865A11.577,11.577,0,0,1,457.631,541.426Z" transform="translate(-378.089 -432.877)" fill="#fff"/></g></svg>