<svg xmlns="http://www.w3.org/2000/svg" viewBox="0 0 120.71 122.2"><defs><style>.cls-1{fill:#e94335;}.cls-2{fill:#34a753;}.cls-3{fill:#4285f3;}.cls-4{fill:#fabb05;}</style></defs><title>Asset 4</title><g id="Layer_2" data-name="Layer 2"><g id="Google"><g id="google-logo"><path class="cls-1" d="M7,33.59C15.84,13.42,38.67-.33,62.56,0A59.23,59.23,0,0,1,99.32,13.2c2.15,1.7,3.15,2.85.51,5.2-4.33,3.87-8.29,8.14-12.35,12.29-1.39,1.42-2.5,2.44-4.52.67C67.48,17.8,38,22,27.38,47.37a14.12,14.12,0,0,1-1,1.69C18.75,46,13.23,40,7,35,6.66,34.73,6.82,34.07,7,33.59Z"/><path class="cls-2" d="M101.78,107.14c-16.35,16.45-47.26,20-69.33,7.82-11.31-6.23-20.25-14.78-25.6-26.73A51.31,51.31,0,0,1,26.38,73.15c2.3,3.8,3.93,8,6.77,11.49C44,98.06,63.54,103.33,82.62,92.55c3.45.15,5.56,2.72,7.89,4.66C94.36,100.4,99.17,102.54,101.78,107.14Z"/><path class="cls-3" d="M101.78,107.14Q92.2,99.85,82.62,92.55A33.3,33.3,0,0,0,93.52,78c1.21-3.29.86-4.86-3.23-4.75-8.3.22-16.61-.08-24.9.14-3.31.08-4.37-1-4.22-4.24.23-5.29.18-10.61,0-15.92-.08-2.74.77-3.85,3.65-3.84,16.93.09,33.87,0,50.8,0,1.7,0,3,0,3.65,2.27C124.31,68.1,115.47,96.4,101.78,107.14Z"/><path class="cls-4" d="M26.38,73.15,6.85,88.23Q-6.9,60.87,7,33.59L26.42,49.06A49.71,49.71,0,0,0,26.38,73.15Z"/></g></g></g></svg>