<svg xmlns="http://www.w3.org/2000/svg" xmlns:xlink="http://www.w3.org/1999/xlink" width="316.364" height="202.727" viewBox="0 0 316.364 202.727"><defs><clipPath id="a"><path d="M0,0H316.364V202.727H0Z" transform="translate(30 13)" fill="#0c0909" opacity="0.2"/></clipPath></defs><g transform="translate(-30 -13)" clip-path="url(#a)"><g transform="translate(78.467 13)"><path d="M632.744,206.94c0,35.169-22.033,65.059-52.719,75.954a77.042,77.042,0,0,1-38.458,3.339q-1.835-.307-3.644-.706-2.451-.534-4.844-1.228c-32.945-9.507-57.092-40.542-57.092-77.36,0-44.382,35.091-80.361,78.378-80.361S632.744,162.558,632.744,206.94Z" transform="translate(-422.159 -126.579)" fill="#e6e6e6"/><path d="M593.531,474.183a.614.614,0,0,0-.243.819l29.468,56.59a.584.584,0,0,0,.8.249l41.656-22.8a.614.614,0,0,0,.243-.819l-29.468-56.59a.584.584,0,0,0-.8-.249Z" transform="translate(-510.416 -369.02)" fill="#3f3d56"/><path d="M603.011,488.477l26.967,51.785,36.97-20.237-26.966-51.786Zm-2.343,1.282.005,0-.006,0Z" transform="translate(-516.024 -381.659)" fill="#fff"/><path d="M646.263,526.585a1.526,1.526,0,0,0-.273,2.046c.424.813,1.235,1.22,1.81.905l27.076-14.822a1.526,1.526,0,0,0,.273-2.046c-.424-.813-1.235-1.22-1.81-.906Z" transform="translate(-549.955 -414.075)" fill="#6c63ff"/><path d="M659.76,551.866a1.526,1.526,0,0,0-.273,2.046c.424.813,1.236,1.22,1.81.905L688.373,540a1.526,1.526,0,0,0,.273-2.046c-.424-.813-1.235-1.22-1.81-.906Z" transform="translate(-560.116 -432.949)" fill="#6c63ff"/><path d="M673.258,577.148a1.526,1.526,0,0,0-.273,2.046c.424.813,1.235,1.22,1.81.906l27.077-14.822a1.526,1.526,0,0,0,.273-2.046c-.424-.813-1.235-1.22-1.81-.906Z" transform="translate(-570.277 -451.824)" fill="#6c63ff"/><path d="M686.755,602.428a1.526,1.526,0,0,0-.273,2.046c.424.813,1.235,1.22,1.81.905l27.077-14.822a1.526,1.526,0,0,0,.273-2.046c-.424-.813-1.235-1.22-1.81-.906Z" transform="translate(-580.438 -470.699)" fill="#6c63ff"/><path d="M700.253,627.71a1.526,1.526,0,0,0-.273,2.046c.424.813,1.235,1.22,1.81.906l27.077-14.822a1.526,1.526,0,0,0,.273-2.046c-.424-.813-1.235-1.22-1.81-.905Z" transform="translate(-590.6 -489.574)" fill="#6c63ff"/><path d="M464.925,247.409l24.534,1.536,6.871-21.009-21.519-4.662Z" transform="translate(-350.015 -166.695)" fill="#2f2e41"/><ellipse cx="9.812" cy="10.061" rx="9.812" ry="10.061" transform="translate(122.792 55.281)" fill="#ffb8b8"/><path d="M539.791,292.166l-15.907,2.669-4.194-17.051,11.135-1.038Z" transform="translate(-391.244 -206.616)" fill="#ffb8b8"/><path d="M760.267,646.42l.064.783a77.043,77.043,0,0,1-38.458,3.339l-.084,1.391a4.782,4.782,0,0,1-2.131,3.7,4.543,4.543,0,0,1-4.171.432l2.742-6.23,3.468-7.885,2.273-5.169-.819-17.881-.087-1.85-.107-2.36,1.481-.009,10.528-.065L745,614.552l1.53-.009C756.122,626.641,764.038,636.474,760.267,646.42Z" transform="translate(-602.464 -490.888)" fill="#2f2e41"/><path d="M762.655,477.627,739.228,480.3l-.868-16.606c-2.749-7.189-.934-13.606,4.771-19.365l1.16-4.708a6.883,6.883,0,0,1,5.021-5.074h0a23.728,23.728,0,0,1,13.053-3.176h0a10.006,10.006,0,0,1,6.167,10.078C767.525,454.5,765.716,466.712,762.655,477.627Z" transform="translate(-618.735 -354.12)" fill="#6c63ff"/><path d="M730.711,503.087l-.188,1.456L727.529,527.7l-1.585,3.484-.518,1.139-12.069,26.513-.506,8.273-.084,1.391a4.741,4.741,0,0,1-3.044,4.184,4.557,4.557,0,0,1-4.954-1.2,4.844,4.844,0,0,1-.89-5.139l.483-1.165,2.632-6.34,7.135-23.367.587-1.927.7-2.292,1.99-6.515,3.17-20.034.3-1.91Z" transform="translate(-593.443 -407.455)" fill="#ffb8b8"/><path d="M780.961,459.72c-4.545-1.675-8.906-1.853-13.015,0l1.341-11.919a5.631,5.631,0,0,1,5.25-5.87h0a5.463,5.463,0,0,1,4.008,1.458,5.744,5.744,0,0,1,1.822,3.94Z" transform="translate(-641.958 -362.012)" fill="#6c63ff"/><path d="M733.345,328.367s-5.074,1.9-5.2,8.8a12.76,12.76,0,0,0,.449,3.437c.329,1.268.593,4.021-1.619,7.689a71.726,71.726,0,0,0-3.914,7.388h0l5.713.565.945-9.71a49.189,49.189,0,0,1,3.358-13.69l.037-.091s2.621,4.67,7.6,4.527l-1.829-1.773a61.673,61.673,0,0,0,9.632,2.893,2.161,2.161,0,0,1,1.724,1.432,2.245,2.245,0,0,1-.43,2.231l-.061.067c-2.075,2.25-6.2,7.481-3.6,11.422s.5,5.1.5,5.1l3.854-2.3,1.749-1.146.04,1.459L761.5,355.3s2.481-.437-3.027-6.484c0,0-1.476-2.368-.916-4.463a10.736,10.736,0,0,0,.254-4.911C756.432,332.638,751.367,319.177,733.345,328.367Z" transform="translate(-608.164 -274.912)" fill="#2f2e41"/><ellipse cx="35.285" cy="2.076" rx="35.285" ry="2.076" transform="translate(96.921 197.834)" fill="#e6e6e6"/><path d="M258.416,485.977a.3.3,0,0,0-.2.363l7.893,30.373a.289.289,0,0,0,.354.21l22.358-6.107a.3.3,0,0,0,.2-.363l-7.893-30.373a.289.289,0,0,0-.354-.21Z" transform="translate(-258.201 -390.335)" fill="#f2f2f2"/><path d="M280.111,512.055c-.308.084-.467.508-.353.945s.456.723.765.639l14.532-3.97c.308-.084.467-.508.353-.945s-.456-.723-.765-.639Z" transform="translate(-274.402 -411.397)" fill="#fff"/><path d="M283.726,525.623c-.308.084-.467.508-.353.945s.456.724.765.639l14.532-3.97c.308-.084.467-.508.353-.945s-.456-.723-.765-.639Z" transform="translate(-277.124 -421.527)" fill="#fff"/><path d="M287.341,539.193c-.308.084-.467.508-.353.945s.457.724.765.639l14.532-3.97c.308-.084.467-.508.353-.945s-.456-.723-.765-.639Z" transform="translate(-279.845 -431.658)" fill="#fff"/><path d="M290.956,552.761c-.308.084-.467.508-.353.945s.456.724.765.639l14.532-3.97c.308-.084.467-.508.353-.945s-.456-.724-.765-.639Z" transform="translate(-282.567 -441.788)" fill="#fff"/><path d="M294.571,566.33c-.308.084-.467.508-.353.945s.456.724.765.639l14.532-3.97c.308-.084.467-.508.353-.945s-.457-.723-.765-.639Z" transform="translate(-285.288 -451.919)" fill="#fff"/><path d="M298.187,579.9c-.308.084-.467.508-.353.945s.456.724.765.639l14.532-3.97c.308-.084.467-.508.353-.945s-.456-.723-.765-.639Z" transform="translate(-288.011 -462.048)" fill="#fff"/><path d="M490.243,909.911c0,.038.13.069.289.069H521.19c.16,0,.289-.031.289-.069v-5.5c0-.038-.13-.069-.289-.069H490.532c-.16,0-.289.031-.289.069Z" transform="translate(-432.892 -707.253)" fill="#f2f2f2"/><path d="M515.093,911.581c0,.076.359.137.8.137s.8-.062.8-.137v-3.573c0-.076-.359-.137-.8-.137s-.8.062-.8.137Z" transform="translate(-451.6 -709.884)" fill="#fff"/><path d="M529.135,911.581c0,.076.359.137.8.137s.8-.062.8-.137v-3.573c0-.076-.359-.137-.8-.137s-.8.062-.8.137Z" transform="translate(-462.171 -709.884)" fill="#fff"/><path d="M543.177,911.581c0,.076.359.137.8.137s.8-.062.8-.137v-3.573c0-.076-.359-.137-.8-.137s-.8.062-.8.137Z" transform="translate(-472.743 -709.884)" fill="#fff"/><path d="M557.219,911.581c0,.076.359.137.8.137s.8-.062.8-.137v-3.573c0-.076-.359-.137-.8-.137s-.8.062-.8.137Z" transform="translate(-483.314 -709.884)" fill="#fff"/><path d="M571.261,911.581c0,.076.359.137.8.137s.8-.062.8-.137v-3.573c0-.076-.359-.137-.8-.137s-.8.062-.8.137Z" transform="translate(-493.886 -709.884)" fill="#fff"/><path d="M585.3,911.581c0,.076.359.137.8.137s.8-.062.8-.137v-3.573c0-.076-.359-.137-.8-.137s-.8.062-.8.137Z" transform="translate(-504.457 -709.884)" fill="#fff"/><path d="M261.923,384.486a.3.3,0,0,0-.119.4l14.439,27.728a.286.286,0,0,0,.391.122l20.411-11.173a.3.3,0,0,0,.119-.4l-14.439-27.728a.286.286,0,0,0-.391-.122Z" transform="translate(-260.888 -310.762)" fill="#e6e6e6"/><path d="M266.568,391.489l13.213,25.374,18.114-9.916-13.213-25.374Zm-1.148.628h0Z" transform="translate(-263.636 -316.956)" fill="#fff"/><path d="M287.76,410.161a.748.748,0,0,0-.134,1c.208.4.605.6.887.444l13.267-7.262a.748.748,0,0,0,.134-1c-.208-.4-.605-.6-.887-.444Z" transform="translate(-280.261 -332.838)" fill="#6c63ff"/><path d="M294.373,422.549a.748.748,0,0,0-.134,1c.208.4.605.6.887.444l13.267-7.262a.748.748,0,0,0,.134-1c-.208-.4-.605-.6-.887-.444Z" transform="translate(-285.239 -342.086)" fill="#6c63ff"/><path d="M300.987,434.936a.748.748,0,0,0-.134,1c.208.4.605.6.887.444l13.267-7.262a.748.748,0,0,0,.134-1c-.208-.4-.605-.6-.887-.444Z" transform="translate(-290.218 -351.334)" fill="#6c63ff"/><path d="M307.6,447.324a.748.748,0,0,0-.134,1c.208.4.605.6.887.444l13.267-7.262a.748.748,0,0,0,.134-1c-.208-.4-.605-.6-.887-.444Z" transform="translate(-295.197 -360.583)" fill="#6c63ff"/><path d="M314.213,459.71a.748.748,0,0,0-.134,1c.208.4.605.6.887.444l13.267-7.262a.748.748,0,0,0,.134-1c-.208-.4-.605-.6-.887-.444Z" transform="translate(-300.176 -369.831)" fill="#6c63ff"/><path d="M320.827,472.1a.748.748,0,0,0-.134,1c.208.4.605.6.887.444l13.267-7.262a.748.748,0,0,0,.134-1c-.208-.4-.605-.6-.887-.444Z" transform="translate(-305.155 -379.079)" fill="#6c63ff"/><path d="M1016,697.007a.286.286,0,0,0-.4.1l-15.6,27.061a.3.3,0,0,0,.1.406l19.919,12.069a.285.285,0,0,0,.4-.1l15.6-27.061a.3.3,0,0,0-.1-.406Z" transform="translate(-816.636 -552.424)" fill="#e6e6e6"/><path d="M1022.627,703.347l-14.272,24.763,17.678,10.711,14.273-24.763Zm-1.12-.679,0,0,0,0Z" transform="translate(-822.948 -556.682)" fill="#fff"/><path d="M1063.107,726.674c-.275-.166-.681.015-.9.4a.748.748,0,0,0,.091,1.007l12.948,7.845c.275.166.68-.015.9-.4a.748.748,0,0,0-.091-1.007Z" transform="translate(-863.377 -574.558)" fill="#6c63ff"/><path d="M1055.963,738.763c-.275-.167-.681.015-.9.4a.748.748,0,0,0,.091,1.007l12.948,7.845c.275.166.681-.015.9-.4a.748.748,0,0,0-.091-1.007Z" transform="translate(-857.999 -583.584)" fill="#6c63ff"/><path d="M1048.819,750.852c-.275-.166-.68.015-.9.4a.748.748,0,0,0,.091,1.007l12.948,7.845c.275.166.68-.015.9-.4a.748.748,0,0,0-.091-1.007Z" transform="translate(-852.621 -592.61)" fill="#6c63ff"/><path d="M1041.675,762.941c-.275-.167-.68.015-.9.4a.748.748,0,0,0,.091,1.007l12.948,7.845c.275.167.68-.015.9-.4a.748.748,0,0,0-.091-1.007Z" transform="translate(-847.242 -601.635)" fill="#6c63ff"/><path d="M1034.531,775.031c-.275-.167-.68.015-.9.4a.748.748,0,0,0,.091,1.007l12.948,7.845c.275.166.68-.015.9-.4a.748.748,0,0,0-.091-1.007Z" transform="translate(-841.864 -610.661)" fill="#6c63ff"/><path d="M1027.387,787.12c-.275-.166-.681.015-.9.4a.748.748,0,0,0,.091,1.007l12.948,7.845c.275.166.681-.015.9-.4a.748.748,0,0,0-.091-1.007Z" transform="translate(-836.486 -619.687)" fill="#6c63ff"/></g></g></svg>