<svg xmlns="http://www.w3.org/2000/svg" viewBox="0 0 112.59 26.05"><defs><style>.cls-1{fill:#111;}.cls-2{fill:#181818;}.cls-3{fill:#171717;}.cls-4{fill:#191919;}.cls-5{fill:#101010;}.cls-6{fill:#151515;}.cls-7{fill:#1d1d1d;}.cls-8{fill:#2f2f2f;}.cls-9{fill:none;stroke:#000;stroke-miterlimit:10;stroke-width:2px;}</style></defs><title>Asset 3</title><g id="Layer_2" data-name="Layer 2"><g id="logo"><g id="project-tm"><path class="cls-1" d="M109.19.38h3.21V16.89l-1.61.38c-.53-1.92-1.05-3.84-1.63-6-.68,2-1.34,3.87-2.52,7.31-1.19-3.28-1.91-5.26-2.68-7.36l-1.49,6.12-1.62-.43V.48h3.25c.7,2.75,1.35,5.27,2,7.8l.88.18C107.66,5.92,108.36,3.38,109.19.38Z"/><path class="cls-2" d="M11.51,0l9.12.6L19.92,16.1l-1,.81-3.77-6.49-.91,5.89-1.58.16C10.51,11.55,12.37,6.09,11.51,0Zm5.13,2.8L15,3.16V8.08c1.6-.35,2.56-1.14,2.62-2C17.67,5,17,3.92,16.64,2.84Z"/><path class="cls-3" d="M32.16,16.81H24.42V.4l7.74.35Zm-2.71-2.3V3.34L27.9,2.87c-.42,1.5-1.36,3.08-1.15,4.49C27.08,9.64,24.85,13.11,29.45,14.51Z"/><path class="cls-4" d="M55.79,9.66l-4.07.79v3.09l5.61,1.74L57,16.66h-8.1V0l8.29,1L57,2.76l-5.08.5-.35,3,4.54,2.28Z"/><path class="cls-5" d="M68.71,17.2,61,16.65V.79l7.66-.7c.2,2.31.34,4,.48,5.63L67,7.11,66.48,1,63.91,3.22V14.89l5.3-4.23Z"/><path class="cls-6" d="M7.89.63v9.94l-4.84.72L1.37,16.76,0,16.47V.11ZM2.72,7.89l.94.56C4.29,7.6,5.4,6.76,5.42,5.89S4.53,3.82,4,2.78l-1.3.52Z"/><path class="cls-4" d="M37.08,17.18l-.53-5.32L38.91,10l1.14,4.58,1.23-.37L42.3,0l1.86.22V16.56Z"/><path class="cls-7" d="M77.46,17C72.6,13.37,76.13,8.2,74,3.38l-2-1.45.2-1h8.33L80.66,2l-3.2,2Z"/><path class="cls-7" d="M91.77,17V4.12L88.52,1.87l.23-1H98.1L94.72,3.89c-1.15,4.45,1.19,9.36-1.4,13.3Z"/><path class="cls-8" d="M82.21,16.15l1.74-2,1.53,1.52-2,1.76Z"/></g><line id="line" class="cls-9" x1="0.59" y1="25.05" x2="112.59" y2="25.05"/></g></g></svg>