<svg xmlns="http://www.w3.org/2000/svg" width="90" height="83.275" viewBox="0 0 90 83.275"><g transform="translate(-934 -0.457)"><path d="M409.214,226.008a.154.154,0,0,1-.09-.029l-43.643-31.346a.772.772,0,0,0-.9,0l-43.329,31.344a.155.155,0,0,1-.22-.04.166.166,0,0,1,.039-.227L364.4,194.368a1.081,1.081,0,0,1,1.266,0L409.3,225.712a.166.166,0,0,1,.06.182.158.158,0,0,1-.151.114Z" transform="translate(613.977 -193.706)" fill="#e5e5e5"/><path d="M375.818,640.578H354.752a.984.984,0,0,1,0-1.968h21.067a.984.984,0,1,1,0,1.968Z" transform="translate(586.542 -565.819)" fill="#6c63ff"/><path d="M362.31,614.578h-7.558a.984.984,0,1,1,0-1.968h7.558a.984.984,0,1,1,0,1.968Z" transform="translate(586.542 -544.05)" fill="#6c63ff"/><path d="M464.861,266.637a1.113,1.113,0,0,1-.442-.091L439.5,255.633V221.476a1.112,1.112,0,0,1,1.079-1.139h47.8a1.112,1.112,0,0,1,1.079,1.139v34.181l-.047.021-24.1,10.862A1.122,1.122,0,0,1,464.861,266.637Z" transform="translate(514.762 -215.62)" fill="#fff"/><path d="M464.443,266.3a1.188,1.188,0,0,1-.472-.1L439,255.269V221.058a1.191,1.191,0,0,1,1.157-1.221h47.813a1.191,1.191,0,0,1,1.157,1.221v34.235l-24.2,10.9A1.193,1.193,0,0,1,464.443,266.3Zm-25.134-11.248,24.78,10.85a.9.9,0,0,0,.72,0l24.01-10.819v-34.02a.874.874,0,0,0-.848-.9H440.157a.874.874,0,0,0-.848.9Z" transform="translate(515.181 -215.202)" fill="#3f3d56"/><path d="M403.895,387.837h-.032l-18.126,7.978-24.8,10.916a.778.778,0,0,1-.613,0l-25.587-10.942-18.572-7.942-.028-.013h-.032A1.124,1.124,0,0,0,315,388.976v49.476a1.124,1.124,0,0,0,1.105,1.139h87.789A1.124,1.124,0,0,0,405,438.452V388.976A1.124,1.124,0,0,0,403.895,387.837Zm.789,50.615a.8.8,0,0,1-.789.814H316.105a.8.8,0,0,1-.79-.814V388.976a.8.8,0,0,1,.759-.814l18.662,7.981L360.2,407.035a1.093,1.093,0,0,0,.859,0l24.676-10.862,18.189-8.006a.806.806,0,0,1,.758.814Z" transform="translate(619 -355.86)" fill="#e5e5e5"/><path d="M526.992,276.475a4.475,4.475,0,0,1-2.693-.894l-.048-.036L514.11,267.78a4.505,4.505,0,1,1,5.48-7.153l6.569,5.037,15.523-20.244a4.505,4.505,0,0,1,6.317-.834l-.1.131.1-.129a4.511,4.511,0,0,1,.834,6.317l-18.259,23.812A4.507,4.507,0,0,1,526.992,276.475Z" transform="translate(452.167 -235.144)" fill="#6c63ff"/></g></svg>