<svg xmlns="http://www.w3.org/2000/svg" width="108" height="68.306" viewBox="0 0 108 68.306"><g transform="translate(-1103 -14)"><g transform="translate(-2583 -321.806)"><path d="M351.958,294.2H270.12a4.007,4.007,0,0,0-2.434.825,4.194,4.194,0,0,0-1.647,3.345V341.83A4.13,4.13,0,0,0,270.12,346h81.838a4.131,4.131,0,0,0,4.081-4.171V298.366A4.13,4.13,0,0,0,351.958,294.2Zm3.652,47.635a3.7,3.7,0,0,1-3.652,3.732H270.12a3.7,3.7,0,0,1-3.652-3.732V298.366a3.746,3.746,0,0,1,2.53-3.552l.088-.029a3.579,3.579,0,0,1,1.033-.151h81.838a3.7,3.7,0,0,1,3.652,3.732Z" transform="translate(3419.961 58.111)" fill="#e5e5e5"/><path d="M315,324.269a1.9,1.9,0,0,1-.932-.246l-42.736-24.049a.222.222,0,0,1-.085-.3.212.212,0,0,1,.292-.086l42.736,24.049a1.47,1.47,0,0,0,1.426.013l43.439-23.429a.212.212,0,0,1,.29.092.222.222,0,0,1-.09.3L315.9,324.04A1.9,1.9,0,0,1,315,324.269Z" transform="translate(3415.916 53.921)" fill="#e5e5e5"/><path d="M301.508,467.707h-6.146a1.756,1.756,0,1,1,0-3.512h6.146a1.756,1.756,0,1,1,0,3.512Z" transform="translate(3398.447 -74.571)" fill="#6c63ff"/><path d="M308.752,494.707h-13.39a1.756,1.756,0,1,1,0-3.512h13.39a1.756,1.756,0,1,1,0,3.512Z" transform="translate(3398.447 -95.644)" fill="#6c63ff"/><circle cx="7.025" cy="7.025" r="7.025" transform="translate(3723.87 371.184)" fill="#6c63ff"/></g><circle cx="17.5" cy="17.5" r="17.5" transform="translate(1176 14)" fill="red"/><text transform="translate(1189 37)" fill="#e5e5e5" font-size="16" font-family="OpenSans-Bold, Open Sans" font-weight="700"><tspan x="0" y="0">1</tspan></text></g></svg>